<svg width="24" height="24" viewBox="0 0 24 24" fill="none" xmlns="http://www.w3.org/2000/svg">
<g clip-path="url(#clip0_629_4317)">
<g clip-path="url(#clip1_629_4317)">
<path d="M16.1116 8.84631C16.29 8.65471 16.5457 8.53247 16.8241 8.50559C17.1025 8.47872 17.3818 8.54935 17.6025 8.70243C17.7108 8.77689 17.8012 8.86987 17.8684 8.97588C17.9356 9.08188 17.9781 9.19875 17.9935 9.31959C18.0089 9.44043 17.9968 9.56279 17.958 9.67942C17.9192 9.79605 17.8545 9.9046 17.7676 9.99865L12.1227 16.1534C12.0282 16.2551 11.911 16.3382 11.7784 16.3977C11.6458 16.4571 11.5008 16.4915 11.3525 16.4986C11.2042 16.5057 11.0558 16.4855 10.9168 16.4391C10.7778 16.3928 10.6511 16.3213 10.5448 16.2293L6.31106 12.5391L6.2375 12.4699C5.8982 12.1075 5.92222 11.5733 6.31106 11.2349C6.6999 10.8965 7.31394 10.8752 7.7298 11.171L7.80937 11.2349L11.2174 14.1924L16.1267 8.8503L16.1116 8.84631Z" fill="#18C138"/>
<path d="M21 21C25.9706 16.0294 25.9706 7.97056 21 3C16.0294 -1.97056 7.97056 -1.97056 3 3C-1.97056 7.97056 -1.97056 16.0294 3 21C7.97056 25.9706 16.0294 25.9706 21 21Z" fill="#FFD03A"/>
<path d="M12.1136 -0.72801C5.08497 -0.789981 -0.664281 4.85732 -0.72825 11.888C-0.780225 17.7572 3.1479 22.7308 8.53732 24.2501C7.57578 23.3625 6.78216 22.299 6.19444 21.1156C3.15989 19.1785 1.15885 15.7701 1.19283 11.906C1.24681 5.93881 6.12648 1.1431 12.0956 1.19507C16.3396 1.23305 19.9879 3.71187 21.723 7.28616C22.8245 8.00182 23.79 8.90939 24.5617 9.96688C23.5981 3.94976 18.4126 -0.672037 12.1136 -0.72801Z" fill="#FFE730"/>
<path d="M5.07044 16.2299C5.12441 10.2747 9.99408 5.489 15.9492 5.54298C16.551 5.54897 17.1407 5.60495 17.7144 5.7049C16.2231 4.34954 14.2481 3.51594 12.0751 3.49595C7.37933 3.45397 3.53717 7.22817 3.49519 11.9239C3.4792 13.801 4.07291 15.5402 5.09043 16.9555C5.07643 16.7156 5.06844 16.4738 5.07044 16.2299Z" fill="#FFE730"/>
<path d="M12.0916 1.67692C6.3903 1.62694 1.72653 6.20676 1.67655 11.908C1.62658 17.6093 6.20639 22.2731 11.9077 22.3231C17.6089 22.373 22.2727 17.7932 22.3227 12.0919C22.3727 6.39067 17.7929 1.72889 12.0916 1.67692ZM11.9177 21.2596C6.8041 21.2136 2.69407 17.0316 2.74004 11.918C2.78602 6.80447 6.96803 2.69443 12.0816 2.74041C17.1951 2.78639 21.3052 6.96839 21.2592 12.082C21.2132 17.1955 17.0312 21.3055 11.9177 21.2596Z" fill="#FFAE2C"/>
<path d="M7.06006 6.81835V6.23263C7.06006 5.8868 7.33993 5.60693 7.68576 5.60693H16.1497C16.4956 5.60693 16.7754 5.8868 16.7754 6.23263V6.81835C16.7754 7.16419 16.4956 7.44406 16.1497 7.44406H7.68576C7.33993 7.44406 7.06006 7.16419 7.06006 6.81835ZM7.06006 9.56504V8.97932C7.06006 8.63349 7.33993 8.35362 7.68576 8.35362H16.1497C16.4956 8.35362 16.7754 8.63349 16.7754 8.97932V9.56504C16.7754 9.91088 16.4956 10.1907 16.1497 10.1907H7.68576C7.33993 10.1907 7.06006 9.91088 7.06006 9.56504ZM10.9522 18.7487V10.1048C10.9522 9.75895 11.2321 9.47908 11.5779 9.47908H12.2596C12.6054 9.47908 12.8853 9.75895 12.8853 10.1048V18.7487C12.8853 19.0945 12.6054 19.3744 12.2596 19.3744H11.5779C11.2321 19.3744 10.9522 19.0945 10.9522 18.7487Z" fill="#E99331"/>
<path d="M5.89013 6.21862C5.87814 5.75284 10.5879 2.43442 10.5879 2.43442C10.5879 2.43442 6.02407 5.46298 5.29841 5.33304C4.57276 5.2031 1.62017 0.655273 1.62017 0.655273C1.62017 0.655273 4.62274 5.18111 4.54077 5.8388C4.45881 6.49648 -0.156982 9.62299 -0.156982 9.62299C-0.156982 9.62299 4.57876 6.65841 5.13249 6.72437C5.68623 6.78834 8.81074 11.4021 8.81074 11.4021C8.81074 11.4021 5.90212 6.68439 5.89013 6.21862Z" fill="#FFFFB8"/>
</g>
</g>
<defs>
<clipPath id="clip0_629_4317">
<rect width="24" height="24" rx="12" fill="white"/>
</clipPath>
<clipPath id="clip1_629_4317">
<rect width="24" height="24" rx="12" fill="white"/>
</clipPath>
</defs>
</svg>
