<svg width="32" height="32" viewBox="0 0 32 32" fill="none" xmlns="http://www.w3.org/2000/svg">
<path opacity="0.5" d="M17.2693 31.6725C22.2244 30.6424 28.6316 26.9416 28.6316 17.3728C28.6316 8.66619 22.4923 2.8673 18.0777 0.203165C17.0965 -0.38923 15.9505 0.389112 15.9505 1.56568V4.57373C15.9505 6.9466 14.9899 11.2777 12.3205 13.0795C10.9573 13.9994 9.48309 12.6221 9.31823 10.9436L9.18191 9.56466C9.0234 7.9619 7.45094 6.98939 6.2177 7.96684C4.00009 9.71934 1.6842 12.7965 1.6842 17.3711C1.6842 29.0726 10.068 32 14.2591 32C14.5043 32 14.76 31.9918 15.0263 31.9753C15.7333 31.8832 15.0263 32.1382 17.2693 31.6709" fill="#FF791D"/>
<path d="M10.6667 24.5919C10.6667 28.0852 13.4814 29.1652 15.2227 29.3146C15.8174 29.2399 15.2227 29.4466 17.1094 29.0679C18.4947 28.5786 20 27.3226 20 24.5919C20 22.8626 18.908 21.7946 18.0534 21.2946C17.792 21.1412 17.488 21.3346 17.4654 21.6359C17.3907 22.5932 16.4707 23.3559 15.8454 22.6279C15.292 21.9852 15.0587 21.0452 15.0587 20.4439V19.6572C15.0587 19.1852 14.5827 18.8706 14.1747 19.1132C12.66 20.0106 10.6667 21.8586 10.6667 24.5919Z" fill="#FF791D"/>
</svg>
