<svg width="18" height="20" viewBox="0 0 18 20" fill="none" xmlns="http://www.w3.org/2000/svg">
<path fill-rule="evenodd" clip-rule="evenodd" d="M3.08571 3.3806C3.08564 2.68729 3.29753 2.01081 3.6925 1.44334C4.08747 0.875875 4.64632 0.445016 5.29289 0.209474C5.93947 -0.026068 6.64234 -0.0548384 7.30572 0.127083C7.9691 0.309005 8.56073 0.692771 9 1.22609C9.54247 0.562848 10.3157 0.133683 11.1615 0.0263731C12.0074 -0.0809363 12.8619 0.141719 13.5504 0.648799C14.2388 1.15588 14.7091 1.90906 14.8652 2.7543C15.0212 3.59954 14.8511 4.47296 14.3897 5.19592H15.1714C15.9216 5.19592 16.6411 5.49646 17.1715 6.03143C17.702 6.5664 18 7.29198 18 8.04855V10.1232C18.0002 10.52 17.8715 10.906 17.6336 11.222C17.3956 11.5381 17.0615 11.7668 16.6824 11.8731C16.8305 13.7673 16.7441 15.6749 16.4253 17.5504C16.3324 18.0953 16.0666 18.5951 15.6677 18.9745C15.2689 19.3539 14.7587 19.5924 14.2138 19.6541L13.2727 19.7599C10.4327 20.08 7.56624 20.08 4.72629 19.7599L3.78617 19.6541C3.24134 19.5924 2.73111 19.3539 2.33228 18.9745C1.93345 18.5951 1.6676 18.0953 1.57474 17.5504C1.2548 15.6762 1.16842 13.769 1.3176 11.8731C0.938506 11.7668 0.604411 11.5381 0.36645 11.222C0.128489 10.906 -0.000228329 10.52 3.04055e-07 10.1232V8.04855C3.04055e-07 7.29198 0.29801 6.5664 0.82847 6.03143C1.35893 5.49646 2.07839 5.19592 2.82857 5.19592H3.61029C3.26678 4.65391 3.08471 4.02387 3.08571 3.3806ZM8.22857 3.3806C8.22857 2.89915 8.03893 2.43742 7.70136 2.09699C7.3638 1.75655 6.90596 1.56529 6.42857 1.56529C5.95118 1.56529 5.49335 1.75655 5.15578 2.09699C4.81821 2.43742 4.62857 2.89915 4.62857 3.3806C4.62857 3.86206 4.81821 4.32379 5.15578 4.66422C5.49335 5.00466 5.95118 5.19592 6.42857 5.19592C6.90596 5.19592 7.3638 5.00466 7.70136 4.66422C8.03893 4.32379 8.22857 3.86206 8.22857 3.3806ZM11.5714 5.19592C11.8078 5.19592 12.0419 5.14896 12.2603 5.05773C12.4786 4.96651 12.6771 4.83279 12.8442 4.66422C13.0114 4.49566 13.144 4.29554 13.2344 4.07529C13.3249 3.85505 13.3714 3.61899 13.3714 3.3806C13.3714 3.14221 13.3249 2.90616 13.2344 2.68592C13.144 2.46567 13.0114 2.26555 12.8442 2.09699C12.6771 1.92842 12.4786 1.7947 12.2603 1.70348C12.0419 1.61225 11.8078 1.56529 11.5714 1.56529C11.094 1.56529 10.6362 1.75655 10.2986 2.09699C9.96107 2.43742 9.77143 2.89915 9.77143 3.3806C9.77143 3.86206 9.96107 4.32379 10.2986 4.66422C10.6362 5.00466 11.094 5.19592 11.5714 5.19592ZM1.54286 8.04855C1.54286 7.3328 2.11886 6.7519 2.82857 6.7519H8.22857V10.3825H1.8C1.7318 10.3825 1.6664 10.3552 1.61817 10.3066C1.56995 10.2579 1.54286 10.192 1.54286 10.1232V8.04855ZM9.77143 11.9385H15.1395C15.2835 13.7227 15.2054 15.5204 14.905 17.2869C14.8687 17.4995 14.7649 17.6944 14.6093 17.8424C14.4537 17.9904 14.2546 18.0834 14.0421 18.1074L13.1019 18.2143C11.9945 18.3388 10.8843 18.4128 9.77143 18.4363V11.9385ZM9.77143 10.3825H16.2C16.2682 10.3825 16.3336 10.3552 16.3818 10.3066C16.4301 10.2579 16.4571 10.192 16.4571 10.1232V8.04855C16.4571 7.3328 15.8811 6.7519 15.1714 6.7519H9.77143V10.3825ZM8.22857 11.9385V18.4363C7.11566 18.4128 6.00436 18.3387 4.89806 18.2143L3.95794 18.1074C3.74553 18.0834 3.54658 17.9906 3.39097 17.8428C3.23536 17.695 3.13149 17.5003 3.09497 17.288C2.7947 15.5218 2.71591 13.7245 2.86046 11.9385H8.22857Z" fill="#0082FF"/>
</svg>
