<svg width="24" height="20" viewBox="0 0 24 20" fill="none" xmlns="http://www.w3.org/2000/svg">
<path fill-rule="evenodd" clip-rule="evenodd" d="M23.5923 8.14495C23.7374 8.05769 23.8526 7.93018 23.9231 7.7787C23.9937 7.62722 24.0164 7.45865 23.9883 7.29451L22.857 0.698642C22.8382 0.589075 22.7972 0.48426 22.7365 0.390309C22.6758 0.296358 22.5965 0.215151 22.5033 0.15142C22.4102 0.0876899 22.3049 0.0427122 22.1938 0.0191092C22.0826 -0.00449391 21.9677 -0.00625005 21.8559 0.0139432L15.4448 1.17743C15.2806 1.20733 15.129 1.28344 15.0085 1.39639C14.888 1.50934 14.8039 1.65421 14.7666 1.8132C14.7292 1.97218 14.7403 2.13836 14.7984 2.2913C14.8564 2.44424 14.959 2.57727 15.0934 2.67406L17.9253 4.71308L13.0467 11.5182L8.59325 8.46804C8.36065 8.30904 8.07294 8.2467 7.79331 8.29473C7.51368 8.34275 7.26501 8.49721 7.10191 8.72418L0.193759 18.3535C0.113057 18.466 0.0558472 18.593 0.025395 18.7272C-0.00505708 18.8613 -0.00815478 19 0.0162788 19.1353C0.0407124 19.2707 0.0921988 19.4 0.167798 19.5159C0.243398 19.6317 0.34163 19.732 0.456886 19.8108C0.689656 19.9699 0.977638 20.0323 1.25748 19.9841C1.39604 19.9602 1.52844 19.91 1.6471 19.8361C1.76577 19.7623 1.86838 19.6664 1.94908 19.5538L8.24013 10.7816L12.6936 13.8318C12.9264 13.9906 13.2142 14.0527 13.4939 14.0044C13.7735 13.956 14.0221 13.8012 14.1849 13.574L19.648 5.95692L22.6324 8.10644C22.77 8.20542 22.9347 8.26197 23.1055 8.26884C23.2762 8.2757 23.4452 8.23255 23.5906 8.14495" fill="#49C460"/>
</svg>
