<svg width="65" height="94" viewBox="0 0 65 94" fill="none" xmlns="http://www.w3.org/2000/svg">
<path d="M1.77741 53.9996H37.4319C48.3777 54.0791 64.955 43.2728 65.0002 28.7214C65.0002 13.9992 52.3934 0.307278 37.9873 0.00677819C37.8029 0.0022594 37.6185 0 37.4319 0H1.77741C0.795528 0 0.000244141 0.808864 0.000244141 1.80752V12.4267C0.000244141 13.4253 0.795528 14.2342 1.77741 14.2342H37.2431C44.1407 14.2342 49.8899 19.8126 49.9809 26.8281C50.0742 33.9565 44.4184 39.7654 37.4319 39.7654C37.3208 39.7654 37.2097 39.7631 37.0987 39.7608V39.7654H1.77741C0.795528 39.7654 0.000244141 40.5742 0.000244141 41.5729V52.192C0.000244141 53.1907 0.795528 53.9996 1.77741 53.9996Z" fill="white"/>
<path d="M1.77717 93.9991H37.4316C48.3775 94.0786 64.9548 83.2723 65 68.7209C65 53.9987 52.3932 40.3068 37.987 40.0063C37.8026 40.0018 37.6182 39.9995 37.4316 39.9995H1.77717C0.795284 39.9995 0 40.8084 0 41.807L0 52.4262C0 53.4248 0.795284 54.2337 1.77717 54.2337H37.2428C44.1405 54.2337 49.8896 59.8122 49.9807 66.8276C50.074 73.956 44.4181 79.7649 37.4316 79.7649C37.3206 79.7649 37.2095 79.7626 37.0984 79.7604V79.7649H1.77717C0.795284 79.7649 0 80.5737 0 81.5724L0 92.1916C0 93.1902 0.795284 93.9991 1.77717 93.9991Z" fill="white"/>
</svg>
