<svg width="24" height="24" viewBox="0 0 24 24" fill="none" xmlns="http://www.w3.org/2000/svg">
<path d="M12.4001 14.8954C11.0194 14.8954 9.90013 16.0154 9.90013 17.3969V22.4001H14.9001V17.3969C14.9001 16.0154 13.7808 14.8954 12.4001 14.8954Z" fill="#0082FF"/>
<path d="M17 17.9962V24H21C22.6568 24 24 22.656 24 20.9981V11.8715C24.0002 11.3516 23.7983 10.8521 23.437 10.4786L14.939 1.28584C13.4396 -0.337513 10.9089 -0.437184 9.28655 1.06319C9.20949 1.13448 9.13523 1.20873 9.06403 1.28584L0.581016 10.4756C0.208734 10.8506 -0.000140554 11.3579 7.09607e-08 11.8865V20.9981C7.09607e-08 22.656 1.34316 24 3 24H6.99998V17.9962C7.01869 15.2677 9.22027 13.0396 11.8784 12.9754C14.6255 12.9091 16.9791 15.1752 17 17.9962Z" fill="#0082FF"/>
<path d="M12 14.9944C10.3432 14.9944 9.00005 16.3384 9.00005 17.9963V24H15V17.9963C15 16.3384 13.6569 14.9944 12 14.9944Z" fill="#0082FF"/>
</svg>
