<svg width="464" height="376" viewBox="0 0 464 376" fill="none" xmlns="http://www.w3.org/2000/svg">
<path d="M40 31.9995V24C40 10.7451 50.7451 0 64 0H192C208.696 0 223.4 8.52416 232 21.4578C240.6 8.52416 255.304 0 272 0H400C413.254 0 424 10.7451 424 24V31.9995L431.982 32C449.661 32 464 46.2384 464 63.9248V319.917C464 320.275 463.994 320.632 463.982 320.987V335.917C463.982 349.155 453.254 360 439.965 360L259.718 360.002C254.186 369.566 243.845 376 232 376C220.155 376 209.814 369.566 204.282 360.002L24.0171 360.003C10.7277 360.003 0 349.317 0 336.078V63.9248C0 46.2384 14.3386 32 32.0171 32L40 31.9995ZM64 16C59.5818 16 56 19.5818 56 24V264C56 268.418 59.5818 272 64 272H196.222C206.758 272 216.664 276.139 224 283.216V48C224 30.3269 209.674 16 192 16H64ZM240 48V283.216C247.336 276.139 257.242 272 267.778 272H400C404.418 272 408 268.418 408 264V24C408 19.5818 404.418 16 400 16H272C254.326 16 240 30.3269 240 48ZM232.032 294.05H231.968L232 294.112L232.032 294.05ZM29.167 48.2496C21.6448 49.5808 16 56.096 16 63.9248V320.075C16 328.866 23.1168 336 32.0171 336H208.896L211.206 339.994C215.368 347.189 223.126 352 232 352C240.874 352 248.632 347.189 252.794 339.994L255.104 336H431.982C440.814 336 448 328.776 448 319.917V63.9248C448 56.096 442.355 49.5808 434.834 48.2496L440 56V288C440 301.254 429.254 312 416 312H240.944L232 329.888L223.056 312H48C34.7451 312 24 301.254 24 288V56L29.167 48.2496Z" fill="white"/>
</svg>
