<svg width="24" height="24" viewBox="0 0 24 24" fill="none" xmlns="http://www.w3.org/2000/svg">
<path d="M0 22V10C0 7.791 1.791 6 4 6V22C4 23.105 3.105 24 2 24C0.895 24 0 23.105 0 22ZM24 5V19C24 21.761 21.761 24 19 24H5.444C5.789 23.409 6 22.732 6 22V5C6 2.239 8.239 0 11 0H19C21.761 0 24 2.239 24 5ZM10 8H12C12.552 8 13 7.552 13 7V5C13 4.448 12.552 4 12 4H10C9.448 4 9 4.448 9 5V7C9 7.552 9.448 8 10 8ZM20 18H10C9.448 18 9 18.448 9 19C9 19.552 9.448 20 10 20H20C20.552 20 21 19.552 21 19C21 18.448 20.552 18 20 18ZM20 14H10C9.448 14 9 14.448 9 15C9 15.552 9.448 16 10 16H20C20.552 16 21 15.552 21 15C21 14.448 20.552 14 20 14ZM20 10H10C9.448 10 9 10.448 9 11C9 11.552 9.448 12 10 12H20C20.552 12 21 11.552 21 11C21 10.448 20.552 10 20 10ZM20 6H16C15.448 6 15 6.448 15 7C15 7.552 15.448 8 16 8H20C20.552 8 21 7.552 21 7C21 6.448 20.552 6 20 6Z" fill="#0082FF"/>
</svg>
