<svg width="32" height="32" viewBox="0 0 32 32" fill="none" xmlns="http://www.w3.org/2000/svg">
<path d="M16 0C7.17756 0 0 7.17758 0 16.0001C0 24.8225 7.17756 32.0001 15.9999 32.0001C24.8223 32.0001 31.9999 24.8225 31.9999 16.0001C31.9999 7.17758 24.8224 0 16 0ZM16 30.125C8.21144 30.125 1.87502 23.7886 1.87502 16.0001C1.87502 8.21153 8.21144 1.87502 16 1.87502C23.7886 1.87502 30.1249 8.21147 30.1249 16.0001C30.1249 23.7887 23.7885 30.125 16 30.125Z" fill="#FFB703"/>
<path d="M16.0001 3.75C9.24542 3.75 3.75006 9.24538 3.75006 16.0001C3.75006 22.7548 9.24542 28.2502 16.0001 28.2502C22.7548 28.2502 28.2501 22.7548 28.2501 16.0001C28.2501 9.24538 22.7547 3.75 16.0001 3.75ZM16.0001 26.3751C10.2793 26.3751 5.62508 21.7208 5.62508 16C5.62508 10.2792 10.2793 5.62502 16.0001 5.62502C21.7209 5.62502 26.3751 10.2793 26.3751 16.0001C26.3751 21.7209 21.7208 26.3751 16.0001 26.3751Z" fill="#FFB703"/>
<path d="M22.081 12.8231L19.2455 13.6005L16.7416 10.3639C16.564 10.1344 16.2902 10 16.0001 10C15.71 10 15.4361 10.1344 15.2586 10.3639L12.7547 13.6005L9.91903 12.8231C9.59278 12.7337 9.24365 12.827 9.00546 13.0672C8.76727 13.3074 8.67696 13.6573 8.76915 13.9828L10.5013 20.0974C10.6157 20.5009 10.984 20.7794 11.4034 20.7794H20.5779C20.9963 20.7794 21.3641 20.5022 21.4792 20.1L23.2301 13.9854C23.3233 13.6597 23.2336 13.309 22.9954 13.0681C22.7573 12.8272 22.4078 12.7335 22.081 12.8231ZM19.8713 18.9044H12.1122L11.0262 15.0708L12.8643 15.5748C13.2306 15.6751 13.6213 15.5446 13.8537 15.2442L16.0001 12.4697L18.1465 15.2442C18.379 15.5447 18.7698 15.6753 19.1359 15.5748L20.9686 15.0723L19.8713 18.9044Z" fill="#FFB703"/>
</svg>
