<svg width="22" height="20" viewBox="0 0 22 20" fill="none" xmlns="http://www.w3.org/2000/svg">
<path d="M1.00006 6.23739L2.30406 7.32991C2.75835 7.71051 3.28642 7.98274 3.85145 8.12762C4.41649 8.2725 5.0049 8.28654 5.57565 8.16877C6.1464 8.05099 6.68576 7.80424 7.15612 7.4457C7.62648 7.08717 8.01653 6.62548 8.29906 6.09284L11.0001 1L13.7011 6.09284C13.9837 6.62556 14.3738 7.0873 14.8443 7.44584C15.3148 7.80438 15.8543 8.0511 16.4251 8.16878C16.996 8.28646 17.5845 8.27227 18.1496 8.12721C18.7147 7.98214 19.2428 7.70969 19.6971 7.32886L21.0001 6.23739L19.2461 15.4238C19.1698 15.8248 19.0069 16.2022 18.77 16.5272C18.5331 16.8522 18.2283 17.1161 17.8791 17.2988C15.7432 18.4175 13.3881 19 11.0001 19C8.61207 19 6.25688 18.4175 4.12106 17.2988C3.77181 17.1161 3.46706 16.8522 3.23013 16.5272C2.9932 16.2022 2.83036 15.8248 2.75406 15.4238L1.00006 6.23739Z" stroke="#FFB703" stroke-width="2" stroke-linecap="round" stroke-linejoin="round"/>
<path d="M7.00006 13.5698C9.59606 14.9661 12.4041 14.9661 15.0001 13.5698" stroke="#FFB703" stroke-width="2" stroke-linecap="round" stroke-linejoin="round"/>
</svg>
