<svg width="36" height="36" viewBox="0 0 36 36" fill="none" xmlns="http://www.w3.org/2000/svg">
<path d="M15.8025 31.0146C15.8025 30.3183 15.5477 29.6299 15.038 28.9494C14.5284 28.2689 13.9602 27.5574 13.3333 26.8151C12.7065 26.0729 12.1389 25.3009 11.6306 24.4993C11.1223 23.6976 10.8668 22.8421 10.8642 21.9327C10.8642 20.1769 11.5391 18.6784 12.8889 17.4372C14.2387 16.196 15.8683 15.5754 17.7778 15.5754C19.6872 15.5754 21.3169 16.196 22.6667 17.4372C24.0165 18.6784 24.6914 20.1769 24.6914 21.9327C24.6914 22.8409 24.4365 23.6964 23.9269 24.4993C23.4173 25.3021 22.8491 26.0735 22.2222 26.8133C21.5954 27.5532 21.0278 28.2646 20.5195 28.9476C20.0112 29.6305 19.7557 30.3195 19.7531 31.0146H15.8025ZM17.7778 35.5555C17.2181 35.5555 16.7493 35.3812 16.3714 35.0324C15.9934 34.6837 15.8038 34.2526 15.8025 33.7392V32.831H19.7531V33.7392C19.7531 34.2538 19.5635 34.6855 19.1842 35.0342C18.8049 35.383 18.3361 35.5568 17.7778 35.5555ZM29.6296 30.1064C29.3333 29.834 29.1608 29.4858 29.1121 29.062C29.0634 28.6382 29.17 28.2598 29.4321 27.9268C30.1235 26.9278 30.6588 25.8458 31.038 24.6809C31.4173 23.516 31.6063 22.2972 31.6049 21.0245C31.6049 19.3595 31.2836 17.7926 30.641 16.3238C29.9984 14.8549 29.1016 13.5459 27.9506 12.3968C27.5885 12.0032 27.3995 11.5721 27.3837 11.1035C27.3679 10.6349 27.5569 10.2183 27.9506 9.85384C28.3444 9.48935 28.8217 9.30771 29.3827 9.30892C29.9437 9.31013 30.4046 9.49177 30.7654 9.85384C32.2469 11.3069 33.4156 12.9871 34.2716 14.8943C35.1276 16.8015 35.5556 18.8449 35.5556 21.0245C35.5556 22.6593 35.3086 24.2262 34.8148 25.7253C34.321 27.2244 33.6296 28.6091 32.7407 29.8794C32.3786 30.394 31.8848 30.6665 31.2593 30.6967C30.6337 30.727 30.0905 30.5302 29.6296 30.1064ZM2.81482 29.8794C1.92593 28.6079 1.23457 27.2232 0.740741 25.7253C0.246914 24.2274 0 22.6605 0 21.0245C0 16.4836 1.72839 12.6238 5.18518 9.44515C8.64197 6.26649 12.8395 4.67717 17.7778 4.67717H18.1728L16.3951 3.04243C16.0329 2.70943 15.8519 2.28561 15.8519 1.77097C15.8519 1.25633 16.0329 0.832506 16.3951 0.499503C16.7572 0.166501 17.2181 0 17.7778 0C18.3374 0 18.7984 0.166501 19.1605 0.499503L24.2963 5.22208C24.4938 5.40372 24.6334 5.60049 24.7151 5.8124C24.7967 6.02431 24.8382 6.25136 24.8395 6.49354C24.8408 6.73573 24.7993 6.96277 24.7151 7.17468C24.6308 7.38659 24.4912 7.58337 24.2963 7.765L19.1605 12.4876C18.7654 12.8509 18.3045 13.0252 17.7778 13.0107C17.251 12.9962 16.7901 12.8067 16.3951 12.4422C16 12.0777 15.8025 11.6466 15.8025 11.1489C15.8025 10.6512 16 10.2195 16.3951 9.85384L18.0741 8.30992H17.7778C13.9588 8.30992 10.6996 9.55111 8 12.0335C5.30041 14.5159 3.95062 17.5129 3.95062 21.0245C3.95062 22.296 4.14025 23.5148 4.51951 24.6809C4.89877 25.847 5.43341 26.929 6.12346 27.9268C6.38683 28.2598 6.49416 28.6382 6.44543 29.062C6.39671 29.4858 6.22354 29.834 5.92593 30.1064C5.46502 30.5302 4.92181 30.727 4.2963 30.6967C3.67078 30.6665 3.17695 30.394 2.81482 29.8794Z" fill="white"/>
</svg>
