<svg width="24" height="24" viewBox="0 0 24 24" fill="none" xmlns="http://www.w3.org/2000/svg">
<path d="M11.9999 13.3373C12.8682 13.3373 13.717 13.0798 14.439 12.5974C15.161 12.115 15.7237 11.4293 16.0559 10.6271C16.3882 9.82493 16.4752 8.94221 16.3058 8.09059C16.1364 7.23898 15.7182 6.45672 15.1043 5.84274C14.4903 5.22876 13.708 4.81064 12.8564 4.64124C12.0048 4.47185 11.1221 4.55879 10.3199 4.89107C9.51768 5.22335 8.83202 5.78605 8.34962 6.50802C7.86722 7.22998 7.60974 8.07878 7.60974 8.94708C7.6109 10.1111 8.07381 11.2271 8.89688 12.0501C9.71995 12.8732 10.8359 13.3361 11.9999 13.3373ZM11.9999 6.02028C12.5788 6.02028 13.1447 6.19194 13.626 6.51354C14.1073 6.83514 14.4824 7.29224 14.7039 7.82704C14.9255 8.36184 14.9834 8.95032 14.8705 9.51807C14.7576 10.0858 14.4788 10.6073 14.0695 11.0166C13.6602 11.426 13.1387 11.7047 12.5709 11.8176C12.0032 11.9306 11.4147 11.8726 10.8799 11.6511C10.3451 11.4296 9.88799 11.0544 9.56639 10.5731C9.24479 10.0918 9.07314 9.52594 9.07314 8.94708C9.07314 8.17084 9.3815 7.4264 9.93038 6.87752C10.4793 6.32864 11.2237 6.02028 11.9999 6.02028Z" fill="#BCBCBC"/>
<path d="M12 14.8007C10.2541 14.8026 8.58019 15.497 7.34563 16.7316C6.11107 17.9661 5.41664 19.64 5.4147 21.3859C5.4147 21.58 5.49179 21.7661 5.62901 21.9033C5.76623 22.0406 5.95234 22.1176 6.1464 22.1176C6.34046 22.1176 6.52657 22.0406 6.66379 21.9033C6.80101 21.7661 6.8781 21.58 6.8781 21.3859C6.8781 20.0275 7.41773 18.7248 8.37827 17.7642C9.33881 16.8037 10.6416 16.2641 12 16.2641C13.3584 16.2641 14.6612 16.8037 15.6217 17.7642C16.5823 18.7248 17.1219 20.0275 17.1219 21.3859C17.1219 21.58 17.199 21.7661 17.3362 21.9033C17.4734 22.0406 17.6595 22.1176 17.8536 22.1176C18.0476 22.1176 18.2337 22.0406 18.371 21.9033C18.5082 21.7661 18.5853 21.58 18.5853 21.3859C18.5833 19.64 17.8889 17.9661 16.6544 16.7316C15.4198 15.497 13.7459 14.8026 12 14.8007Z" fill="#BCBCBC"/>
<path d="M12 0C18.6274 0 24 5.37259 24 12C23.9999 18.6274 18.6274 24 12 24C5.37265 24 5.06393e-05 18.6273 0 12C0 5.37261 5.37262 2.90489e-05 12 0ZM12 1.59961C6.25632 1.59968 1.60061 6.25631 1.60059 12C1.60059 17.7437 6.25631 22.4003 12 22.4004C17.7438 22.4004 22.4004 17.7438 22.4004 12C22.4004 6.25626 17.7437 1.59961 12 1.59961Z" fill="#BCBCBC"/>
</svg>
