<svg width="18" height="18" viewBox="0 0 18 18" fill="none" xmlns="http://www.w3.org/2000/svg">
<path d="M15.75 5.08696C15.4413 5.08678 15.1359 5.15298 14.8528 5.28143C14.5697 5.40988 14.315 5.59782 14.1045 5.83354C13.8941 6.06925 13.7325 6.34768 13.6298 6.65145C13.5271 6.95522 13.4854 7.27782 13.5075 7.59913L11.985 8.1313C11.7436 7.65505 11.4001 7.24341 10.9812 6.92847C10.5623 6.61353 10.0793 6.40381 9.57 6.31565V4.62522C10.051 4.49104 10.4762 4.19525 10.7798 3.78359C11.0835 3.37193 11.2488 2.86733 11.25 2.34783C11.25 1.0487 10.245 0 9 0C7.755 0 6.75 1.0487 6.75 2.34783C6.75 3.44348 7.47 4.35913 8.4375 4.62522V6.31565C7.3875 6.49565 6.5025 7.18435 6.0225 8.1313L4.4925 7.59913C4.5 7.54435 4.5 7.48957 4.5 7.43478C4.5 6.13565 3.495 5.08696 2.25 5.08696C1.005 5.08696 0 6.13565 0 7.43478C0 8.73391 1.005 9.78261 2.25 9.78261C3.045 9.78261 3.735 9.35217 4.14 8.71043L5.6625 9.24261C5.5125 10.2522 5.79 11.3243 6.48 12.1304L5.4225 13.5157C5.1375 13.3748 4.83 13.3043 4.5 13.3043C3.255 13.3043 2.25 14.353 2.25 15.6522C2.25 16.9513 3.255 18 4.5 18C5.745 18 6.75 16.9513 6.75 15.6522C6.75 15.12 6.585 14.6348 6.3 14.2435L7.3575 12.8583C8.3775 13.453 9.6225 13.4452 10.635 12.8583L11.6925 14.2435C11.415 14.6348 11.25 15.12 11.25 15.6522C11.25 16.9513 12.255 18 13.5 18C14.745 18 15.75 16.9513 15.75 15.6522C15.75 14.353 14.745 13.3043 13.5 13.3043C13.17 13.3043 12.8625 13.3748 12.5775 13.5078L11.52 12.1226C11.8528 11.7345 12.0988 11.2741 12.2402 10.7747C12.3816 10.2753 12.4148 9.74927 12.3375 9.23478L13.86 8.70261C14.2575 9.34435 14.955 9.77478 15.75 9.77478C16.995 9.77478 18 8.72609 18 7.42696C18 6.12783 16.995 5.08696 15.75 5.08696ZM2.25 8.21739C1.8375 8.21739 1.5 7.86522 1.5 7.43478C1.5 7.00435 1.8375 6.65217 2.25 6.65217C2.6625 6.65217 3 7.00435 3 7.43478C3 7.86522 2.6625 8.21739 2.25 8.21739ZM4.5 16.4348C4.0875 16.4348 3.75 16.0826 3.75 15.6522C3.75 15.2217 4.0875 14.8696 4.5 14.8696C4.9125 14.8696 5.25 15.2217 5.25 15.6522C5.25 16.0826 4.9125 16.4348 4.5 16.4348ZM8.25 2.34783C8.25 1.91739 8.5875 1.56522 9 1.56522C9.4125 1.56522 9.75 1.91739 9.75 2.34783C9.75 2.77826 9.4125 3.13043 9 3.13043C8.5875 3.13043 8.25 2.77826 8.25 2.34783ZM9 11.7391C8.50272 11.7391 8.02581 11.533 7.67417 11.1661C7.32254 10.7992 7.125 10.3015 7.125 9.78261C7.125 9.26371 7.32254 8.76606 7.67417 8.39914C8.02581 8.03222 8.50272 7.82609 9 7.82609C9.49728 7.82609 9.97419 8.03222 10.3258 8.39914C10.6775 8.76606 10.875 9.26371 10.875 9.78261C10.875 10.3015 10.6775 10.7992 10.3258 11.1661C9.97419 11.533 9.49728 11.7391 9 11.7391ZM13.5 14.8696C13.9125 14.8696 14.25 15.2217 14.25 15.6522C14.25 16.0826 13.9125 16.4348 13.5 16.4348C13.0875 16.4348 12.75 16.0826 12.75 15.6522C12.75 15.2217 13.0875 14.8696 13.5 14.8696ZM15.75 8.21739C15.3375 8.21739 15 7.86522 15 7.43478C15 7.00435 15.3375 6.65217 15.75 6.65217C16.1625 6.65217 16.5 7.00435 16.5 7.43478C16.5 7.86522 16.1625 8.21739 15.75 8.21739Z" fill="#34C759"/>
</svg>
