<svg width="19" height="19" viewBox="0 0 19 19" fill="none" xmlns="http://www.w3.org/2000/svg">
<path d="M17.0626 10.1738C16.8738 11.6138 16.2965 12.9753 15.3927 14.1122C14.4889 15.249 13.2926 16.1185 11.9323 16.6272C10.5719 17.1359 9.09873 17.2647 7.67073 16.9997C6.24272 16.7348 4.91377 16.0862 3.8264 15.1234C2.73903 14.1606 1.93425 12.9199 1.49839 11.5345C1.06252 10.1491 1.01201 8.67113 1.35226 7.25918C1.69251 5.84724 2.4107 4.55454 3.4298 3.51974C4.4489 2.48494 5.73046 1.74707 7.13704 1.38526C11.0363 0.385204 15.0725 2.39232 16.5626 6.13253" stroke="#FFC430" stroke-width="2.25922" stroke-linecap="round" stroke-linejoin="round"/>
<path d="M17.1296 1.13208V6.13237H12.1293" stroke="#FFC430" stroke-width="2.25922" stroke-linecap="round" stroke-linejoin="round"/>
</svg>
