<svg width="338" height="56" viewBox="0 0 338 56" fill="none" xmlns="http://www.w3.org/2000/svg">
<path d="M1.9818 31.5416V14.0312C1.9818 13.5425 2.32567 13.2982 3.01342 13.2982C3.2849 13.2982 3.51113 13.3616 3.69212 13.4883C3.8912 13.6149 3.99074 13.7959 3.99074 14.0312V15.47C5.29384 14.0041 6.94082 13.2711 8.93167 13.2711C10.271 13.2711 11.4202 13.633 12.3795 14.357C13.3387 15.0809 13.8183 16.0854 13.8183 17.3704C13.8183 18.1667 13.6011 18.9631 13.1667 19.7594C12.7505 20.5377 12.0899 21.0716 11.1849 21.3611C12.9043 21.6326 14.2165 22.2751 15.1214 23.2886C16.0444 24.3022 16.5059 25.3881 16.5059 26.5464C16.5059 28.3382 15.9268 29.8222 14.7685 30.9987C13.6102 32.1751 11.8003 32.7633 9.33888 32.7633C7.22135 32.7633 5.42053 32.4465 3.93645 31.8131C3.77356 32.1389 3.45683 32.3018 2.98627 32.3018C2.31662 32.3018 1.9818 32.0484 1.9818 31.5416ZM3.99074 29.8313C5.14906 30.4467 6.84128 30.7543 9.0674 30.7543C10.9135 30.7543 12.2799 30.3833 13.1667 29.6413C14.0536 28.8811 14.497 27.949 14.497 26.845C14.497 25.56 13.945 24.6008 12.841 23.9673C11.737 23.3158 10.28 22.99 8.47015 22.99C7.90909 22.99 7.10371 23.0081 6.05399 23.0443C5.00427 23.0624 4.31652 23.0715 3.99074 23.0715V29.8313ZM3.99074 20.8725C4.71469 20.963 5.52008 21.0082 6.40691 21.0082C8.10818 21.0082 9.42938 20.6644 10.3705 19.9766C11.3297 19.2708 11.8093 18.4473 11.8093 17.5061C11.8093 16.7279 11.5469 16.1487 11.0221 15.7687C10.4972 15.3886 9.8004 15.1986 8.93167 15.1986C7.91814 15.1986 6.96797 15.4429 6.08113 15.9316C5.1943 16.4202 4.49751 17.1804 3.99074 18.212V20.8725ZM19.0735 31.5416V19.4608C19.0735 18.9721 19.4174 18.7278 20.1052 18.7278C20.3766 18.7278 20.6029 18.7911 20.7839 18.9178C20.9829 19.0445 21.0825 19.2255 21.0825 19.4608V31.5416C21.0825 31.7769 20.9829 31.9669 20.7839 32.1117C20.5848 32.2384 20.3495 32.3018 20.078 32.3018C19.4084 32.3018 19.0735 32.0484 19.0735 31.5416ZM19.0735 15.2529V14.7642C19.0735 14.2755 19.4174 14.0312 20.1052 14.0312C20.3766 14.0312 20.6029 14.0946 20.7839 14.2212C20.9829 14.3479 21.0825 14.5289 21.0825 14.7642V15.2529C21.0825 15.4881 20.9829 15.6782 20.7839 15.823C20.5848 15.9497 20.3495 16.013 20.078 16.013C19.4084 16.013 19.0735 15.7596 19.0735 15.2529ZM24.3493 31.5416V12.6738C24.3493 12.1851 24.6932 11.9408 25.381 11.9408C25.6524 11.9408 25.8787 12.0042 26.0597 12.1309C26.2588 12.2575 26.3583 12.4385 26.3583 12.6738V31.5416C26.3583 31.7769 26.2588 31.9669 26.0597 32.1117C25.8606 32.2384 25.6253 32.3018 25.3538 32.3018C24.6842 32.3018 24.3493 32.0484 24.3493 31.5416ZM29.6252 31.5416V19.4608C29.6252 18.9721 29.969 18.7278 30.6568 18.7278C30.9283 18.7278 31.1545 18.7911 31.3355 18.9178C31.5346 19.0445 31.6341 19.2255 31.6341 19.4608V31.5416C31.6341 31.7769 31.5346 31.9669 31.3355 32.1117C31.1364 32.2384 30.9011 32.3018 30.6296 32.3018C29.96 32.3018 29.6252 32.0484 29.6252 31.5416ZM29.6252 15.2529V14.7642C29.6252 14.2755 29.969 14.0312 30.6568 14.0312C30.9283 14.0312 31.1545 14.0946 31.3355 14.2212C31.5346 14.3479 31.6341 14.5289 31.6341 14.7642V15.2529C31.6341 15.4881 31.5346 15.6782 31.3355 15.823C31.1364 15.9497 30.9011 16.013 30.6296 16.013C29.96 16.013 29.6252 15.7596 29.6252 15.2529ZM34.8738 31.5416V19.5151C34.8738 19.0264 35.2177 18.7821 35.9055 18.7821C36.1769 18.7821 36.4032 18.8454 36.5842 18.9721C36.7832 19.0988 36.8828 19.2798 36.8828 19.5151V20.9539C37.4619 20.2662 38.1678 19.678 39.0003 19.1893C39.8329 18.7007 40.6563 18.4563 41.4708 18.4563C43.6969 18.4563 45.2805 19.2617 46.2217 20.8725C46.7827 20.0942 47.4976 19.497 48.3663 19.0807C49.2532 18.6645 50.1491 18.4563 51.054 18.4563C52.7372 18.4563 54.0674 18.9359 55.0447 19.8952C56.0221 20.8544 56.5107 22.1846 56.5107 23.8859C56.5107 24.0488 56.5017 24.9447 56.4836 26.5735C56.4836 28.1843 56.4836 29.8765 56.4836 31.6502C56.4836 31.8855 56.384 32.0755 56.1849 32.2203C55.9859 32.347 55.7596 32.4103 55.5063 32.4103C54.8366 32.4103 54.5018 32.157 54.5018 31.6502V24.1302C54.5018 21.6869 53.3887 20.4653 51.1626 20.4653C50.8368 20.4653 50.502 20.5015 50.1581 20.5739C49.8323 20.6282 49.4704 20.7458 49.0722 20.9268C48.6921 21.1078 48.3483 21.334 48.0406 21.6055C47.7329 21.8589 47.4795 22.2118 47.2804 22.6642C47.0813 23.1167 46.9818 23.6235 46.9818 24.1845C46.9818 24.8904 46.9728 25.7863 46.9547 26.8722C46.9547 27.9581 46.9547 29.5508 46.9547 31.6502C46.9547 31.8855 46.8461 32.0755 46.6289 32.2203C46.4298 32.347 46.1945 32.4103 45.923 32.4103C45.2896 32.4103 44.9729 32.157 44.9729 31.6502V24.1302C44.9729 22.809 44.6561 21.8679 44.0227 21.3069C43.3892 20.7458 42.5748 20.4653 41.5794 20.4653C40.6201 20.4653 39.6881 20.8272 38.7831 21.5512C37.8963 22.2751 37.2629 23.1167 36.8828 24.0759V31.5416C36.8828 31.7769 36.7832 31.9669 36.5842 32.1117C36.3851 32.2384 36.1498 32.3018 35.8783 32.3018C35.2087 32.3018 34.8738 32.0484 34.8738 31.5416ZM59.0126 27.3608C59.0126 24.9356 59.9628 22.8452 61.8631 21.0897C63.7635 19.3341 65.9172 18.4563 68.3243 18.4563C69.8265 18.4563 71.1386 18.9902 72.2608 20.058V12.6467C72.2608 12.1761 72.5865 11.9408 73.2381 11.9408C73.9258 11.9408 74.2697 12.1761 74.2697 12.6467V31.5416C74.2697 32.0484 73.9349 32.3018 73.2652 32.3018C72.9938 32.3018 72.7585 32.2384 72.5594 32.1117C72.3603 31.9669 72.2608 31.7769 72.2608 31.5416V27.1165C70.7948 29.0169 69.3921 30.3924 68.0528 31.243C66.7316 32.0936 65.3652 32.5189 63.9535 32.5189C62.6504 32.5189 61.5011 31.9941 60.5057 30.9444C59.5103 29.8765 59.0126 28.682 59.0126 27.3608ZM60.9672 27.4151C60.9672 28.4468 61.3292 29.234 62.0531 29.777C62.7771 30.3019 63.5463 30.5643 64.3607 30.5643C65.3018 30.5643 66.3787 30.1028 67.5913 29.1797C68.8039 28.2386 69.8084 27.1979 70.6047 26.0577C71.4192 24.8994 71.8264 23.9945 71.8264 23.3429C71.8264 22.8 71.6635 22.3204 71.3377 21.9041C71.0301 21.4697 70.6409 21.153 70.1704 20.9539C69.7179 20.7548 69.3016 20.6101 68.9216 20.5196C68.5415 20.411 68.2248 20.3567 67.9714 20.3567C66.1977 20.3567 64.5869 21.0716 63.1391 22.5014C61.6912 23.9131 60.9672 25.551 60.9672 27.4151ZM77.5317 31.5416V19.4608C77.5317 18.9721 77.8756 18.7278 78.5633 18.7278C78.8348 18.7278 79.061 18.7911 79.242 18.9178C79.4411 19.0445 79.5406 19.2255 79.5406 19.4608V31.5416C79.5406 31.7769 79.4411 31.9669 79.242 32.1117C79.0429 32.2384 78.8076 32.3018 78.5362 32.3018C77.8665 32.3018 77.5317 32.0484 77.5317 31.5416ZM77.5317 15.2529V14.7642C77.5317 14.2755 77.8756 14.0312 78.5633 14.0312C78.8348 14.0312 79.061 14.0946 79.242 14.2212C79.4411 14.3479 79.5406 14.5289 79.5406 14.7642V15.2529C79.5406 15.4881 79.4411 15.6782 79.242 15.823C79.0429 15.9497 78.8076 16.013 78.5362 16.013C77.8665 16.013 77.5317 15.7596 77.5317 15.2529ZM95.9043 31.5416V12.6467C95.9043 12.1761 96.2481 11.9408 96.9359 11.9408C97.5874 11.9408 97.9132 12.1761 97.9132 12.6467V20.058C99.0353 18.9902 100.347 18.4563 101.85 18.4563C104.257 18.4563 106.411 19.3341 108.311 21.0897C110.211 22.8452 111.161 24.9356 111.161 27.3608C111.161 28.682 110.664 29.8765 109.668 30.9444C108.673 31.9941 107.524 32.5189 106.22 32.5189C104.809 32.5189 103.433 32.0936 102.094 31.243C100.773 30.3924 99.3792 29.0169 97.9132 27.1165V31.5416C97.9132 31.7769 97.8137 31.9669 97.6146 32.1117C97.4155 32.2384 97.1802 32.3018 96.9087 32.3018C96.2391 32.3018 95.9043 32.0484 95.9043 31.5416ZM98.3476 23.3429C98.3476 23.9945 98.7457 24.8994 99.5421 26.0577C100.357 27.1979 101.37 28.2386 102.583 29.1797C103.795 30.1028 104.872 30.5643 105.813 30.5643C106.628 30.5643 107.397 30.3019 108.121 29.777C108.845 29.234 109.207 28.4468 109.207 27.4151C109.207 25.551 108.483 23.9131 107.035 22.5014C105.587 21.0716 103.976 20.3567 102.203 20.3567C101.949 20.3567 101.632 20.411 101.252 20.5196C100.872 20.6101 100.447 20.7548 99.9764 20.9539C99.524 21.153 99.1349 21.4697 98.8091 21.9041C98.5014 22.3204 98.3476 22.8 98.3476 23.3429ZM113.799 31.5416V19.5151C113.799 19.0264 114.143 18.7821 114.831 18.7821C115.102 18.7821 115.328 18.8454 115.509 18.9721C115.708 19.0988 115.808 19.2798 115.808 19.5151V22.9086C116.496 21.4245 117.256 20.3024 118.088 19.5422C118.939 18.7821 120.061 18.402 121.455 18.402C122.432 18.402 123.418 18.5287 124.414 18.7821C124.939 19.0355 125.201 19.3793 125.201 19.8137C125.201 20.1214 125.138 20.3386 125.011 20.4653C124.884 20.592 124.676 20.6734 124.387 20.7096C123.464 20.4924 122.713 20.3838 122.133 20.3838C120.794 20.3838 119.572 21.0444 118.468 22.3656C117.364 23.6868 116.478 25.4062 115.808 27.5237V31.5416C115.808 31.7769 115.708 31.9669 115.509 32.1117C115.31 32.2384 115.075 32.3018 114.803 32.3018C114.134 32.3018 113.799 32.0484 113.799 31.5416ZM125.504 27.3608C125.504 24.9356 126.454 22.8452 128.354 21.0897C130.255 19.3341 132.408 18.4563 134.815 18.4563C136.462 18.4563 137.865 19.0807 139.023 20.3295C140.182 21.5783 140.761 22.9991 140.761 24.5917L140.734 31.7045C140.734 31.9398 140.616 32.1298 140.381 32.2746C140.164 32.4013 139.919 32.4646 139.648 32.4646C139.051 32.4646 138.752 32.2113 138.752 31.7045V27.1165C137.286 29.0169 135.883 30.3924 134.544 31.243C133.223 32.0936 131.856 32.5189 130.445 32.5189C129.142 32.5189 127.992 31.9941 126.997 30.9444C126.001 29.8765 125.504 28.682 125.504 27.3608ZM127.458 27.4151C127.458 28.4468 127.82 29.234 128.544 29.777C129.268 30.3019 130.037 30.5643 130.852 30.5643C131.793 30.5643 132.87 30.1028 134.083 29.1797C135.295 28.2386 136.3 27.1979 137.096 26.0577C137.91 24.8994 138.318 23.9945 138.318 23.3429C138.318 22.8 138.155 22.3204 137.829 21.9041C137.521 21.4697 137.132 21.153 136.662 20.9539C136.209 20.7548 135.793 20.6101 135.413 20.5196C135.033 20.411 134.716 20.3567 134.463 20.3567C132.689 20.3567 131.078 21.0716 129.63 22.5014C128.182 23.9131 127.458 25.551 127.458 27.4151ZM143.811 31.5959V19.4608C143.811 19.2255 143.901 19.0445 144.082 18.9178C144.281 18.7911 144.517 18.7278 144.788 18.7278C145.476 18.7278 145.82 18.9721 145.82 19.4608V21.6055C146.725 20.6282 147.82 19.859 149.105 19.2979C150.39 18.7187 151.693 18.4292 153.014 18.4292C154.715 18.4292 156.136 18.9631 157.276 20.0309C158.434 21.0806 159.014 22.4561 159.014 24.1574C159.014 24.3203 159.005 25.1528 158.986 26.655C158.986 28.1391 158.986 29.768 158.986 31.5416C158.986 31.7769 158.887 31.9669 158.688 32.1117C158.489 32.2384 158.253 32.3018 157.982 32.3018C157.312 32.3018 156.978 32.0484 156.978 31.5416V24.4017C156.978 23.1167 156.516 22.1303 155.593 21.4426C154.688 20.7548 153.747 20.411 152.77 20.411C151.448 20.411 150.091 20.8544 148.697 21.7412C147.322 22.61 146.363 23.714 145.82 25.0533V31.5959C145.82 32.0846 145.476 32.3289 144.788 32.3289C144.517 32.3289 144.281 32.2656 144.082 32.1389C143.901 32.0122 143.811 31.8312 143.811 31.5959ZM161.48 27.3608C161.48 24.9356 162.43 22.8452 164.331 21.0897C166.231 19.3341 168.385 18.4563 170.792 18.4563C172.294 18.4563 173.606 18.9902 174.728 20.058V12.6467C174.728 12.1761 175.054 11.9408 175.706 11.9408C176.393 11.9408 176.737 12.1761 176.737 12.6467V31.5416C176.737 32.0484 176.402 32.3018 175.733 32.3018C175.461 32.3018 175.226 32.2384 175.027 32.1117C174.828 31.9669 174.728 31.7769 174.728 31.5416V27.1165C173.262 29.0169 171.86 30.3924 170.52 31.243C169.199 32.0936 167.833 32.5189 166.421 32.5189C165.118 32.5189 163.969 31.9941 162.973 30.9444C161.978 29.8765 161.48 28.682 161.48 27.3608ZM163.435 27.4151C163.435 28.4468 163.797 29.234 164.521 29.777C165.245 30.3019 166.014 30.5643 166.828 30.5643C167.769 30.5643 168.846 30.1028 170.059 29.1797C171.271 28.2386 172.276 27.1979 173.072 26.0577C173.887 24.8994 174.294 23.9945 174.294 23.3429C174.294 22.8 174.131 22.3204 173.805 21.9041C173.498 21.4697 173.108 21.153 172.638 20.9539C172.185 20.7548 171.769 20.6101 171.389 20.5196C171.009 20.411 170.692 20.3567 170.439 20.3567C168.665 20.3567 167.054 21.0716 165.607 22.5014C164.159 23.9131 163.435 25.551 163.435 27.4151ZM179.999 31.5416V12.6738C179.999 12.1851 180.343 11.9408 181.031 11.9408C181.302 11.9408 181.529 12.0042 181.709 12.1309C181.909 12.2575 182.008 12.4385 182.008 12.6738V24.266L191.32 18.9178C191.519 18.7911 191.709 18.7278 191.89 18.7278C192.161 18.7278 192.379 18.8635 192.542 19.135C192.722 19.3884 192.813 19.6599 192.813 19.9495C192.813 20.2209 192.741 20.4019 192.596 20.4924L186.488 23.9945L194.876 30.9172C194.949 31.0439 194.985 31.1706 194.985 31.2973C194.985 31.605 194.804 31.8674 194.442 32.0846C194.207 32.2294 193.971 32.3018 193.736 32.3018C193.483 32.3018 193.284 32.1932 193.139 31.976L184.614 25.0804L182.008 26.5735V31.5416C182.008 31.7769 181.909 31.9669 181.709 32.1117C181.51 32.2384 181.275 32.3018 181.004 32.3018C180.334 32.3018 179.999 32.0484 179.999 31.5416ZM195.574 25.1347C195.574 23.9764 195.827 22.9448 196.334 22.0398C196.841 21.1349 197.511 20.42 198.343 19.8952C199.176 19.3703 200.072 18.9812 201.031 18.7278C201.99 18.4563 202.967 18.3206 203.963 18.3206C205.736 18.3206 207.112 18.7097 208.089 19.4879C209.067 20.2481 209.555 21.1892 209.555 22.3113C209.555 23.5239 208.985 24.5556 207.845 25.4062C206.705 26.2568 205.085 26.6821 202.985 26.6821C201.103 26.6821 199.311 26.4107 197.61 25.8677C197.809 27.207 198.434 28.3291 199.483 29.234C200.533 30.139 201.827 30.5914 203.365 30.5914C204.18 30.5914 205.022 30.4647 205.89 30.2114C206.777 29.958 207.474 29.596 207.981 29.1255C208.053 28.9807 208.198 28.9083 208.415 28.9083C208.668 28.9083 208.94 29.0259 209.229 29.2612C209.519 29.4784 209.664 29.7046 209.664 29.9399C209.211 30.8629 208.324 31.5416 207.003 31.976C205.7 32.3923 204.433 32.6004 203.203 32.6004C200.976 32.6004 199.149 31.8674 197.719 30.4014C196.289 28.9354 195.574 27.1799 195.574 25.1347ZM197.719 23.7773C199.076 24.3746 200.759 24.6732 202.768 24.6732C204.343 24.6732 205.537 24.4289 206.352 23.9402C207.166 23.4334 207.573 22.8724 207.573 22.257C207.573 21.7141 207.23 21.2616 206.542 20.8996C205.872 20.5196 204.868 20.3295 203.528 20.3295C202.08 20.3295 200.868 20.6553 199.891 21.3069C198.931 21.9403 198.207 22.7638 197.719 23.7773ZM224.843 27.3608C224.843 24.9356 225.793 22.8452 227.693 21.0897C229.594 19.3341 231.747 18.4563 234.155 18.4563C235.802 18.4563 237.204 19.0807 238.363 20.3295C239.521 21.5783 240.1 22.9991 240.1 24.5917L240.073 31.7045C240.073 31.9398 239.955 32.1298 239.72 32.2746C239.503 32.4013 239.258 32.4646 238.987 32.4646C238.39 32.4646 238.091 32.2113 238.091 31.7045V27.1165C236.625 29.0169 235.222 30.3924 233.883 31.243C232.562 32.0936 231.195 32.5189 229.784 32.5189C228.481 32.5189 227.331 31.9941 226.336 30.9444C225.341 29.8765 224.843 28.682 224.843 27.3608ZM226.798 27.4151C226.798 28.4468 227.159 29.234 227.883 29.777C228.607 30.3019 229.377 30.5643 230.191 30.5643C231.132 30.5643 232.209 30.1028 233.422 29.1797C234.634 28.2386 235.639 27.1979 236.435 26.0577C237.249 24.8994 237.657 23.9945 237.657 23.3429C237.657 22.8 237.494 22.3204 237.168 21.9041C236.86 21.4697 236.471 21.153 236.001 20.9539C235.548 20.7548 235.132 20.6101 234.752 20.5196C234.372 20.411 234.055 20.3567 233.802 20.3567C232.028 20.3567 230.417 21.0716 228.969 22.5014C227.521 23.9131 226.798 25.551 226.798 27.4151ZM243.15 31.5416V19.4608C243.15 18.9721 243.494 18.7278 244.182 18.7278C244.453 18.7278 244.679 18.7911 244.86 18.9178C245.059 19.0445 245.159 19.2255 245.159 19.4608V31.5416C245.159 31.7769 245.059 31.9669 244.86 32.1117C244.661 32.2384 244.426 32.3018 244.154 32.3018C243.485 32.3018 243.15 32.0484 243.15 31.5416ZM243.15 15.2529V14.7642C243.15 14.2755 243.494 14.0312 244.182 14.0312C244.453 14.0312 244.679 14.0946 244.86 14.2212C245.059 14.3479 245.159 14.5289 245.159 14.7642V15.2529C245.159 15.4881 245.059 15.6782 244.86 15.823C244.661 15.9497 244.426 16.013 244.154 16.013C243.485 16.013 243.15 15.7596 243.15 15.2529ZM248.426 31.5959V19.4608C248.426 19.2255 248.516 19.0445 248.697 18.9178C248.896 18.7911 249.132 18.7278 249.403 18.7278C250.091 18.7278 250.435 18.9721 250.435 19.4608V21.6055C251.34 20.6282 252.435 19.859 253.72 19.2979C255.005 18.7187 256.308 18.4292 257.629 18.4292C259.33 18.4292 260.751 18.9631 261.891 20.0309C263.049 21.0806 263.629 22.4561 263.629 24.1574C263.629 24.3203 263.619 25.1528 263.601 26.655C263.601 28.1391 263.601 29.768 263.601 31.5416C263.601 31.7769 263.502 31.9669 263.303 32.1117C263.104 32.2384 262.868 32.3018 262.597 32.3018C261.927 32.3018 261.592 32.0484 261.592 31.5416V24.4017C261.592 23.1167 261.131 22.1303 260.208 21.4426C259.303 20.7548 258.362 20.411 257.385 20.411C256.063 20.411 254.706 20.8544 253.312 21.7412C251.937 22.61 250.978 23.714 250.435 25.0533V31.5959C250.435 32.0846 250.091 32.3289 249.403 32.3289C249.132 32.3289 248.896 32.2656 248.697 32.1389C248.516 32.0122 248.426 31.8312 248.426 31.5959ZM266.095 27.3608C266.095 24.9356 267.045 22.8452 268.946 21.0897C270.846 19.3341 273 18.4563 275.407 18.4563C277.054 18.4563 278.456 19.0807 279.615 20.3295C280.773 21.5783 281.352 22.9991 281.352 24.5917L281.325 31.7045C281.325 31.9398 281.207 32.1298 280.972 32.2746C280.755 32.4013 280.511 32.4646 280.239 32.4646C279.642 32.4646 279.343 32.2113 279.343 31.7045V27.1165C277.877 29.0169 276.475 30.3924 275.135 31.243C273.814 32.0936 272.448 32.5189 271.036 32.5189C269.733 32.5189 268.584 31.9941 267.588 30.9444C266.593 29.8765 266.095 28.682 266.095 27.3608ZM268.05 27.4151C268.05 28.4468 268.412 29.234 269.136 29.777C269.859 30.3019 270.629 30.5643 271.443 30.5643C272.384 30.5643 273.461 30.1028 274.674 29.1797C275.886 28.2386 276.891 27.1979 277.687 26.0577C278.502 24.8994 278.909 23.9945 278.909 23.3429C278.909 22.8 278.746 22.3204 278.42 21.9041C278.112 21.4697 277.723 21.153 277.253 20.9539C276.8 20.7548 276.384 20.6101 276.004 20.5196C275.624 20.411 275.307 20.3567 275.054 20.3567C273.28 20.3567 271.669 21.0716 270.221 22.5014C268.774 23.9131 268.05 25.551 268.05 27.4151ZM284.402 31.5416V12.6738C284.402 12.1851 284.746 11.9408 285.434 11.9408C285.705 11.9408 285.931 12.0042 286.112 12.1309C286.311 12.2575 286.411 12.4385 286.411 12.6738V31.5416C286.411 31.7769 286.311 31.9669 286.112 32.1117C285.913 32.2384 285.678 32.3018 285.406 32.3018C284.737 32.3018 284.402 32.0484 284.402 31.5416ZM289.081 27.3608C289.081 24.9356 290.031 22.8452 291.931 21.0897C293.831 19.3341 295.985 18.4563 298.392 18.4563C299.894 18.4563 301.207 18.9902 302.329 20.058V12.6467C302.329 12.1761 302.655 11.9408 303.306 11.9408C303.994 11.9408 304.338 12.1761 304.338 12.6467V31.5416C304.338 32.0484 304.003 32.3018 303.333 32.3018C303.062 32.3018 302.826 32.2384 302.627 32.1117C302.428 31.9669 302.329 31.7769 302.329 31.5416V27.1165C300.863 29.0169 299.46 30.3924 298.121 31.243C296.8 32.0936 295.433 32.5189 294.021 32.5189C292.718 32.5189 291.569 31.9941 290.574 30.9444C289.578 29.8765 289.081 28.682 289.081 27.3608ZM291.035 27.4151C291.035 28.4468 291.397 29.234 292.121 29.777C292.845 30.3019 293.614 30.5643 294.429 30.5643C295.37 30.5643 296.447 30.1028 297.659 29.1797C298.872 28.2386 299.876 27.1979 300.673 26.0577C301.487 24.8994 301.894 23.9945 301.894 23.3429C301.894 22.8 301.732 22.3204 301.406 21.9041C301.098 21.4697 300.709 21.153 300.238 20.9539C299.786 20.7548 299.37 20.6101 298.99 20.5196C298.609 20.411 298.293 20.3567 298.039 20.3567C296.266 20.3567 294.655 21.0716 293.207 22.5014C291.759 23.9131 291.035 25.551 291.035 27.4151ZM307.437 26.7636V19.4336C307.437 19.1984 307.527 19.0174 307.708 18.8907C307.907 18.7459 308.134 18.6735 308.387 18.6735C309.057 18.6735 309.391 18.9269 309.391 19.4336V26.5193C309.391 27.1889 309.572 27.7862 309.934 28.311C310.296 28.8359 310.749 29.234 311.292 29.5055C311.853 29.777 312.396 29.9851 312.921 30.1299C313.464 30.2566 313.961 30.32 314.414 30.32C315.699 30.32 316.911 29.9218 318.052 29.1255C319.192 28.3291 319.997 27.2703 320.468 25.9491V19.4336C320.468 18.945 320.812 18.7007 321.499 18.7007C321.771 18.7007 321.997 18.764 322.178 18.8907C322.377 19.0174 322.477 19.1984 322.477 19.4336V32.4375C322.477 33.5053 322.232 34.4826 321.744 35.3695C321.273 36.2744 320.658 36.9983 319.898 37.5413C319.138 38.0843 318.314 38.5005 317.427 38.7901C316.54 39.0797 315.663 39.2245 314.794 39.2245C313.31 39.2245 311.853 38.8806 310.423 38.1929C309.011 37.5051 308.296 36.5821 308.278 35.4238C308.278 35.1342 308.369 34.908 308.55 34.7451C308.749 34.6003 308.984 34.5279 309.256 34.5279C309.545 34.5279 309.799 34.6093 310.016 34.7722C310.233 34.9351 310.342 35.1432 310.342 35.3966C310.342 35.9758 310.857 36.4192 311.889 36.7269C312.921 37.0526 313.934 37.2155 314.93 37.2155C315.744 37.2155 316.549 37.0617 317.346 36.754C318.16 36.4644 318.884 35.9486 319.518 35.2066C320.151 34.4826 320.468 33.623 320.468 32.6275V29.4784C318.821 31.3606 316.721 32.3018 314.169 32.3018C312.396 32.3018 310.83 31.795 309.473 30.7815C308.116 29.7499 307.437 28.4106 307.437 26.7636ZM325.706 31.5416V19.5151C325.706 19.0264 326.05 18.7821 326.738 18.7821C327.01 18.7821 327.236 18.8454 327.417 18.9721C327.616 19.0988 327.715 19.2798 327.715 19.5151V22.9086C328.403 21.4245 329.163 20.3024 329.996 19.5422C330.846 18.7821 331.969 18.402 333.362 18.402C334.34 18.402 335.326 18.5287 336.321 18.7821C336.846 19.0355 337.109 19.3793 337.109 19.8137C337.109 20.1214 337.045 20.3386 336.919 20.4653C336.792 20.592 336.584 20.6734 336.294 20.7096C335.371 20.4924 334.62 20.3838 334.041 20.3838C332.702 20.3838 331.48 21.0444 330.376 22.3656C329.272 23.6868 328.385 25.4062 327.715 27.5237V31.5416C327.715 31.7769 327.616 31.9669 327.417 32.1117C327.218 32.2384 326.982 32.3018 326.711 32.3018C326.041 32.3018 325.706 32.0484 325.706 31.5416Z" fill="url(#paint0_linear_960_3949)"/>
<path d="M85.6734 47.7103C116.97 48.6721 210.829 50.744 218.084 27.6069C225.34 4.46969 175.476 -0.594634 143.339 1.5955C123.254 2.96433 91.6803 -0.749537 85.7028 21.0044C77.5952 50.5108 149.686 48.8937 170.768 53.9244" stroke="url(#paint1_linear_960_3949)" stroke-width="2.26301"/>
<defs>
<linearGradient id="paint0_linear_960_3949" x1="0" y1="22.8018" x2="338" y2="22.8018" gradientUnits="userSpaceOnUse">
<stop stop-color="#0082FF"/>
<stop offset="1" stop-color="#104CAA"/>
</linearGradient>
<linearGradient id="paint1_linear_960_3949" x1="85.0678" y1="27.4407" x2="218.791" y2="27.5884" gradientUnits="userSpaceOnUse">
<stop stop-color="#FFCC00"/>
<stop offset="1" stop-color="#FF8D28"/>
</linearGradient>
</defs>
</svg>
