<svg width="24" height="24" viewBox="0 0 24 24" fill="none" xmlns="http://www.w3.org/2000/svg">
<path d="M9.58019 6.39712C10.6568 4.46571 11.1952 3.5 12 3.5C12.8048 3.5 13.3432 4.46571 14.4198 6.39712L14.6984 6.8968C15.0043 7.44564 15.1573 7.72007 15.3958 7.90114C15.6343 8.0822 15.9314 8.14942 16.5255 8.28384L17.0664 8.40622C19.1571 8.87927 20.2025 9.1158 20.4512 9.91557C20.6999 10.7153 19.9872 11.5487 18.5619 13.2154L18.1932 13.6466C17.7881 14.1203 17.5856 14.3571 17.4945 14.6501C17.4034 14.943 17.434 15.259 17.4953 15.8909L17.551 16.4662C17.7665 18.69 17.8742 19.8019 17.2231 20.2962C16.572 20.7905 15.5932 20.3398 13.6357 19.4385L13.1292 19.2053C12.573 18.9492 12.2948 18.8211 12 18.8211C11.7052 18.8211 11.427 18.9492 10.8708 19.2053L10.3643 19.4385C8.40677 20.3398 7.428 20.7905 6.77688 20.2962C6.12575 19.8019 6.2335 18.69 6.44899 16.4662L6.50474 15.8909C6.56597 15.259 6.59659 14.943 6.50548 14.6501C6.41438 14.3571 6.21186 14.1203 5.80683 13.6466L5.43808 13.2154C4.01276 11.5487 3.3001 10.7153 3.54881 9.91557C3.79751 9.1158 4.84288 8.87927 6.93361 8.40622L7.4745 8.28384C8.06862 8.14942 8.36568 8.0822 8.6042 7.90114C8.84272 7.72007 8.9957 7.44565 9.30165 6.8968L9.58019 6.39712Z" stroke="#0082FF" stroke-width="1.5"/>
</svg>
