<svg width="24" height="24" viewBox="0 0 24 24" fill="none" xmlns="http://www.w3.org/2000/svg">
<path d="M21 6.78261C20.5884 6.78237 20.1811 6.87064 19.8037 7.04191C19.4262 7.21317 19.0866 7.46377 18.8061 7.77805C18.5255 8.09234 18.31 8.46357 18.1731 8.8686C18.0361 9.27363 17.9806 9.70377 18.01 10.1322L15.98 10.8417C15.6582 10.2067 15.2001 9.65788 14.6416 9.23796C14.0831 8.81804 13.4391 8.53841 12.76 8.42087V6.16696C13.4013 5.98806 13.9682 5.59367 14.3731 5.04478C14.778 4.4959 14.9983 3.8231 15 3.13043C15 1.39826 13.66 0 12 0C10.34 0 9 1.39826 9 3.13043C9 4.5913 9.96 5.81217 11.25 6.16696V8.42087C9.85 8.66087 8.67 9.57913 8.03 10.8417L5.99 10.1322C6 10.0591 6 9.98609 6 9.91304C6 8.18087 4.66 6.78261 3 6.78261C1.34 6.78261 0 8.18087 0 9.91304C0 11.6452 1.34 13.0435 3 13.0435C4.06 13.0435 4.98 12.4696 5.52 11.6139L7.55 12.3235C7.35 13.6696 7.72 15.0991 8.64 16.1739L7.23 18.0209C6.85 17.833 6.44 17.7391 6 17.7391C4.34 17.7391 3 19.1374 3 20.8696C3 22.6017 4.34 24 6 24C7.66 24 9 22.6017 9 20.8696C9 20.16 8.78 19.513 8.4 18.9913L9.81 17.1443C11.17 17.9374 12.83 17.927 14.18 17.1443L15.59 18.9913C15.22 19.513 15 20.16 15 20.8696C15 22.6017 16.34 24 18 24C19.66 24 21 22.6017 21 20.8696C21 19.1374 19.66 17.7391 18 17.7391C17.56 17.7391 17.15 17.833 16.77 18.0104L15.36 16.1635C15.8038 15.6461 16.1318 15.0322 16.3203 14.3663C16.5088 13.7003 16.5531 12.999 16.45 12.313L18.48 11.6035C19.01 12.4591 19.94 13.033 21 13.033C22.66 13.033 24 11.6348 24 9.90261C24 8.17043 22.66 6.78261 21 6.78261ZM3 10.9565C2.45 10.9565 2 10.487 2 9.91304C2 9.33913 2.45 8.86957 3 8.86957C3.55 8.86957 4 9.33913 4 9.91304C4 10.487 3.55 10.9565 3 10.9565ZM6 21.913C5.45 21.913 5 21.4435 5 20.8696C5 20.2957 5.45 19.8261 6 19.8261C6.55 19.8261 7 20.2957 7 20.8696C7 21.4435 6.55 21.913 6 21.913ZM11 3.13043C11 2.55652 11.45 2.08696 12 2.08696C12.55 2.08696 13 2.55652 13 3.13043C13 3.70435 12.55 4.17391 12 4.17391C11.45 4.17391 11 3.70435 11 3.13043ZM12 15.6522C11.337 15.6522 10.7011 15.3773 10.2322 14.8881C9.76339 14.3989 9.5 13.7353 9.5 13.0435C9.5 12.3516 9.76339 11.6881 10.2322 11.1989C10.7011 10.7096 11.337 10.4348 12 10.4348C12.663 10.4348 13.2989 10.7096 13.7678 11.1989C14.2366 11.6881 14.5 12.3516 14.5 13.0435C14.5 13.7353 14.2366 14.3989 13.7678 14.8881C13.2989 15.3773 12.663 15.6522 12 15.6522ZM18 19.8261C18.55 19.8261 19 20.2957 19 20.8696C19 21.4435 18.55 21.913 18 21.913C17.45 21.913 17 21.4435 17 20.8696C17 20.2957 17.45 19.8261 18 19.8261ZM21 10.9565C20.45 10.9565 20 10.487 20 9.91304C20 9.33913 20.45 8.86957 21 8.86957C21.55 8.86957 22 9.33913 22 9.91304C22 10.487 21.55 10.9565 21 10.9565Z" fill="#BCBCBC"/>
</svg>
