<svg width="24" height="24" viewBox="0 0 24 24" fill="none" xmlns="http://www.w3.org/2000/svg">
<path d="M21.0361 0.5C21.3155 0.5 21.5391 0.72533 21.5391 1V5.14258C21.5387 5.89043 20.9307 6.49942 20.1768 6.5H16.0205C15.7413 6.49985 15.5176 6.27456 15.5176 6C15.5176 5.72542 15.7413 5.50015 16.0205 5.5H20.3477L19.5088 4.64941C17.7388 2.85366 15.3821 1.74932 12.8662 1.53711C7.05563 1.04721 1.94394 5.34636 1.45215 11.1426C0.960605 16.9388 5.2753 22.0326 11.0859 22.5225C16.8943 23.0122 22.004 18.7167 22.499 12.9238C22.5287 12.681 22.7381 12.4968 22.9873 12.5H22.9922L23.0371 12.502C23.319 12.5281 23.5238 12.7765 23.498 13.0537V13.0547C23.2741 15.5099 22.2633 17.8284 20.6152 19.667C16.3751 24.3974 9.09023 24.8053 4.34473 20.5781C-0.399719 16.3518 -0.809252 9.0928 3.42969 4.36328C7.66986 -0.367129 14.9557 -0.776089 19.7012 3.45117L20.5332 4.19336V1C20.5332 0.725421 20.7569 0.500151 21.0361 0.5Z" fill="#BCBCBC" stroke="#BCBCBC"/>
</svg>
