<svg width="14" height="19" viewBox="0 0 14 19" fill="none" xmlns="http://www.w3.org/2000/svg">
<path fill-rule="evenodd" clip-rule="evenodd" d="M5.97353 0.353974C6.24825 0.127313 6.62065 0 7.00893 0C7.39721 0 7.76961 0.127313 8.04434 0.353974L13.5711 4.91783C13.7071 5.03026 13.815 5.16372 13.8886 5.3106C13.9622 5.45747 14 5.61488 14 5.77384C14 5.9328 13.962 6.0902 13.8883 6.23704C13.8146 6.38389 13.7067 6.51731 13.5706 6.62968C13.4345 6.74206 13.2729 6.83119 13.0951 6.89199C12.9173 6.95278 12.7268 6.98406 12.5343 6.98402C12.3419 6.98398 12.1514 6.95263 11.9736 6.89177C11.7958 6.8309 11.6343 6.74171 11.4983 6.62928L7.00893 2.92155L2.51957 6.63009C2.38447 6.74574 2.22285 6.83801 2.04413 6.90151C1.8654 6.96502 1.67316 6.99848 1.47862 6.99995C1.28407 7.00142 1.09112 6.97087 0.911014 6.91008C0.730913 6.8493 0.567271 6.75949 0.429635 6.6459C0.292 6.53231 0.183127 6.39721 0.109371 6.24849C0.0356149 6.09977 -0.00154877 5.94041 4.94418e-05 5.7797C0.00164766 5.61899 0.0419756 5.46015 0.11868 5.31245C0.195384 5.16475 0.306928 5.03115 0.446804 4.91945L5.97353 0.353974Z" fill="#C73BE9"/>
<path fill-rule="evenodd" clip-rule="evenodd" d="M5.97353 6.35397C6.24825 6.12731 6.62065 6 7.00893 6C7.39721 6 7.76961 6.12731 8.04434 6.35397L13.5711 10.9178C13.7071 11.0303 13.815 11.1637 13.8886 11.3106C13.9622 11.4575 14 11.6149 14 11.7738C14 11.9328 13.962 12.0902 13.8883 12.237C13.8146 12.3839 13.7067 12.5173 13.5706 12.6297C13.4345 12.7421 13.2729 12.8312 13.0951 12.892C12.9173 12.9528 12.7268 12.9841 12.5343 12.984C12.3419 12.984 12.1514 12.9526 11.9736 12.8918C11.7958 12.8309 11.6343 12.7417 11.4983 12.6293L7.00893 8.92155L2.51957 12.6301C2.38447 12.7457 2.22285 12.838 2.04413 12.9015C1.8654 12.965 1.67316 12.9985 1.47862 12.9999C1.28407 13.0014 1.09112 12.9709 0.911014 12.9101C0.730913 12.8493 0.567271 12.7595 0.429635 12.6459C0.292 12.5323 0.183127 12.3972 0.109371 12.2485C0.0356149 12.0998 -0.00154877 11.9404 4.94418e-05 11.7797C0.00164766 11.619 0.0419756 11.4601 0.11868 11.3125C0.195384 11.1648 0.306928 11.0312 0.446804 10.9194L5.97353 6.35397Z" fill="#C73BE9"/>
<path fill-rule="evenodd" clip-rule="evenodd" d="M5.97353 12.354C6.24825 12.1273 6.62065 12 7.00893 12C7.39721 12 7.76961 12.1273 8.04434 12.354L13.5711 16.9178C13.7071 17.0303 13.815 17.1637 13.8886 17.3106C13.9622 17.4575 14 17.6149 14 17.7738C14 17.9328 13.962 18.0902 13.8883 18.237C13.8146 18.3839 13.7067 18.5173 13.5706 18.6297C13.4345 18.7421 13.2729 18.8312 13.0951 18.892C12.9173 18.9528 12.7268 18.9841 12.5343 18.984C12.3419 18.984 12.1514 18.9526 11.9736 18.8918C11.7958 18.8309 11.6343 18.7417 11.4983 18.6293L7.00893 14.9215L2.51957 18.6301C2.38447 18.7457 2.22285 18.838 2.04413 18.9015C1.8654 18.965 1.67316 18.9985 1.47862 18.9999C1.28407 19.0014 1.09112 18.9709 0.911014 18.9101C0.730913 18.8493 0.567271 18.7595 0.429635 18.6459C0.292 18.5323 0.183127 18.3972 0.109371 18.2485C0.0356149 18.0998 -0.00154877 17.9404 4.94418e-05 17.7797C0.00164766 17.619 0.0419756 17.4601 0.11868 17.3125C0.195384 17.1648 0.306928 17.0312 0.446804 16.9194L5.97353 12.354Z" fill="#C73BE9"/>
</svg>
